<?xml version="1.0" standalone="no"?>
<!DOCTYPE svg PUBLIC "-//W3C//DTD SVG 20010904//EN"
 "http://www.w3.org/TR/2001/REC-SVG-20010904/DTD/svg10.dtd">
<svg version="1.0" xmlns="http://www.w3.org/2000/svg"
 width="1200.000000pt" height="1200.000000pt" viewBox="0 0 1200.000000 1200.000000"
 preserveAspectRatio="xMidYMid meet">
<metadata>
Created by potrace 1.14, written by Peter Selinger 2001-2017
</metadata>
<g transform="translate(0.000000,1200.000000) scale(0.100000,-0.100000)"
fill="#000000" stroke="none">
<path d="M0 6000 l0 -6000 6000 0 6000 0 0 6000 0 6000 -6000 0 -6000 0 0
-6000z m7828 1724 c340 -190 870 -486 1107 -618 116 -65 296 -166 402 -224
106 -59 189 -110 185 -114 -4 -3 -290 -165 -637 -358 -346 -194 -781 -437
-967 -541 l-336 -188 -976 545 -976 546 293 163 c160 90 598 334 972 544 374
209 686 378 693 376 8 -3 116 -62 240 -131z m-3786 -2025 c107 -23 190 -84
223 -163 10 -24 17 -67 17 -107 0 -87 -32 -151 -97 -194 -25 -17 -45 -32 -45
-35 0 -4 16 -12 35 -19 149 -54 181 -304 54 -430 -81 -80 -177 -101 -476 -101
l-203 0 0 530 0 530 220 0 c124 0 242 -5 272 -11z m877 -265 c75 -21 129 -60
166 -119 l30 -48 6 -271 c3 -175 9 -281 17 -299 7 -16 12 -33 12 -38 0 -5 -44
-9 -99 -9 l-99 0 -12 35 c-13 39 -21 43 -41 19 -34 -41 -91 -59 -189 -59 -88
0 -99 2 -150 31 -80 45 -113 97 -118 185 -4 59 -1 77 22 122 49 99 136 137
329 145 l127 5 0 48 c0 36 -6 55 -26 78 -62 74 -207 61 -236 -20 l-10 -29 -95
0 -96 0 6 41 c11 80 84 152 190 184 59 19 199 18 266 -1z m997 -8 c57 -26 95
-69 121 -137 14 -37 18 -91 21 -341 l4 -298 -101 0 -101 0 0 265 c0 289 -4
313 -55 353 -22 17 -41 22 -92 22 -68 0 -105 -14 -138 -50 -19 -21 -20 -38
-22 -289 -1 -146 -2 -274 -2 -283 -1 -16 -13 -18 -96 -18 l-95 0 0 395 0 395
90 0 90 0 0 -39 c0 -67 8 -74 41 -36 75 84 226 112 335 61z m754 3 c25 -11 55
-29 67 -41 l22 -20 6 36 7 36 90 0 89 0 -3 -427 c-3 -425 -3 -428 -27 -480
-30 -69 -102 -134 -177 -163 -84 -33 -234 -34 -315 -2 -64 25 -139 76 -139 94
0 6 18 36 41 65 l41 55 21 -20 c73 -66 198 -85 276 -41 50 28 81 86 81 153 l0
48 -30 -25 c-50 -42 -111 -60 -187 -55 -140 10 -232 94 -278 252 -22 76 -17
267 10 341 35 98 103 172 182 201 59 21 170 17 223 -7z m3506 -1202 c341 -190
775 -433 967 -540 l347 -194 -372 -208 c-205 -114 -641 -358 -969 -541 -328
-184 -603 -334 -610 -334 -13 0 -1952 1081 -1947 1085 18 18 1946 1084 1954
1081 6 -2 290 -160 630 -349z"/>
<path d="M3750 5411 l0 -141 113 0 c123 0 164 13 200 61 25 34 26 118 3 154
-33 51 -61 60 -193 64 l-123 3 0 -141z"/>
<path d="M3750 4964 l0 -156 123 4 c138 4 174 17 214 78 44 64 22 162 -46 207
-31 21 -46 23 -162 23 l-129 0 0 -156z"/>
<path d="M4753 5009 c-81 -15 -116 -51 -115 -121 2 -103 141 -132 250 -51 31
24 32 25 32 104 l0 80 -62 -2 c-35 -2 -82 -6 -105 -10z"/>
<path d="M6519 5266 c-108 -74 -113 -362 -7 -437 60 -43 158 -37 208 12 l30
31 0 172 c0 139 -3 176 -16 194 -39 57 -151 71 -215 28z"/>
</g>
</svg>
