<?xml version="1.0" standalone="no"?>
<!DOCTYPE svg PUBLIC "-//W3C//DTD SVG 20010904//EN"
 "http://www.w3.org/TR/2001/REC-SVG-20010904/DTD/svg10.dtd">
<svg version="1.0" xmlns="http://www.w3.org/2000/svg"
 width="53.87pt" height="43.61pt" viewBox="0 0 1200.000000 1200.000000"
 preserveAspectRatio="xMidYMid meet">

<g transform="translate(0.000000,1200.000000) scale(0.100000,-0.100000)"
fill="rgb(64,53,111)" stroke="none">
<path d="M0 6000 l0 -6000 6000 0 6000 0 0 6000 0 6000 -6000 0 -6000 0 0
-6000z m7707 3977 c70 -40 175 -99 233 -132 58 -32 151 -85 208 -117 57 -32
105 -58 107 -58 2 0 46 -24 97 -53 91 -52 175 -99 428 -240 69 -38 155 -87
192 -108 36 -22 69 -39 72 -39 3 0 43 -22 88 -49 81 -47 247 -140 338 -189 25
-13 50 -28 55 -33 7 -7 10 -385 11 -1090 1 -593 2 -1575 3 -2181 l1 -1103 323
-179 c1258 -699 1627 -910 1615 -922 -7 -6 -177 -103 -378 -214 -201 -112
-498 -277 -660 -368 -162 -91 -431 -241 -598 -334 l-303 -170 -322 180 c-177
99 -509 285 -737 412 -228 128 -524 293 -657 368 l-243 135 0 1092 0 1092
-707 396 c-390 218 -782 437 -873 488 -91 51 -210 118 -265 148 l-100 56 0
1098 0 1098 33 20 32 21 0 -1091 c0 -600 2 -1091 4 -1091 3 0 21 9 40 21 l36
21 0 1092 0 1092 35 17 35 17 0 -1090 0 -1090 40 20 40 20 0 1095 0 1094 30
16 c16 8 31 15 35 15 3 0 5 -488 5 -1085 0 -597 3 -1085 8 -1085 4 0 22 9 40
20 l32 20 0 1089 0 1089 33 21 32 20 3 -1089 c1 -600 4 -1090 6 -1090 3 0 21
9 40 21 l36 21 0 1092 0 1093 28 14 c15 7 30 15 34 17 5 2 9 -487 10 -1087 l3
-1091 37 25 38 26 2 1090 3 1090 595 334 c327 183 596 334 597 334 1 1 59 -32
130 -72z m-3697 -4268 c91 -14 174 -54 216 -103 66 -77 81 -204 35 -294 -22
-43 -85 -102 -111 -102 -8 -1 6 -12 31 -25 51 -27 95 -73 116 -122 18 -45 16
-159 -4 -218 -22 -67 -92 -135 -169 -166 -56 -22 -73 -24 -321 -27 l-263 -3 0
535 0 536 203 0 c111 0 231 -5 267 -11z m872 -260 c107 -23 190 -84 224 -164
13 -32 17 -85 20 -290 3 -227 7 -273 29 -327 7 -17 -2 -18 -103 -18 l-111 0
-7 35 -6 34 -32 -24 c-56 -42 -106 -58 -186 -58 -96 0 -165 28 -219 90 -81 91
-75 240 11 320 60 56 204 93 366 93 51 0 52 0 52 30 0 84 -52 130 -145 130
-62 0 -104 -23 -112 -60 -3 -18 -12 -30 -22 -31 -93 -4 -184 -2 -188 4 -11 18
21 98 54 137 77 89 230 130 375 99z m1035 -18 c49 -26 64 -39 90 -76 46 -67
53 -119 53 -422 l0 -283 -99 0 -99 0 -4 273 c-3 240 -5 276 -21 305 -42 77
-188 84 -256 11 -20 -22 -21 -30 -21 -306 l0 -283 -105 0 -105 0 0 395 0 395
94 0 94 0 7 -52 c7 -50 8 -51 24 -33 65 76 142 108 243 101 40 -3 82 -13 105
-25z m755 3 c18 -9 45 -28 61 -42 l27 -26 0 37 0 37 95 0 95 0 0 -420 c0 -395
-1 -422 -20 -473 -29 -76 -79 -130 -158 -169 -64 -32 -71 -33 -187 -33 -114 0
-123 2 -185 31 -70 34 -124 80 -113 98 4 6 24 35 46 63 l39 53 39 -34 c70 -59
171 -73 249 -33 53 26 76 63 86 137 l7 55 -24 -18 c-93 -68 -206 -80 -303 -33
-94 46 -156 132 -182 255 -53 250 50 485 233 531 52 13 155 4 195 -16z"/>
<path d="M3750 5410 l0 -142 118 4 c93 3 123 7 149 23 58 34 81 122 48 184
-24 46 -75 64 -202 69 l-113 5 0 -143z"/>
<path d="M3750 4971 l0 -151 120 0 c138 0 187 16 216 71 20 40 20 118 -1 158
-27 52 -65 65 -207 69 l-128 4 0 -151z"/>
<path d="M4723 4999 c-65 -19 -99 -92 -72 -152 30 -66 162 -69 235 -5 33 29
34 33 34 99 l0 69 -82 -1 c-46 0 -97 -5 -115 -10z"/>
<path d="M6529 5267 c-19 -12 -45 -43 -59 -67 -22 -40 -25 -56 -25 -155 0 -95
3 -116 22 -152 12 -22 34 -50 48 -61 57 -45 163 -36 209 19 26 30 26 33 26 198
l0 167 -27 26 c-56 53 -137 63 -194 25z"/>
</g>
</svg>
